<svg width="151" height="25" viewBox="0 0 151 25" fill="none" xmlns="http://www.w3.org/2000/svg">
<path fill-rule="evenodd" clip-rule="evenodd" d="M11.1098 8.23288C10.6948 7.7055 10.2699 7.19775 9.8744 6.73887C10.0503 3.86799 9.65466 1.55374 9.40566 0.123233C9.84515 0.0109823 10.2504 -0.0134549 10.6166 0.00610769C10.8851 1.57824 11.4174 4.86399 11.1098 8.23288ZM11.6957 8.99938C12.145 5.44499 11.6127 1.90049 11.31 0.108608C12.145 0.313733 12.6382 0.728734 12.6382 0.728734C13.7173 5.44012 12.9165 10.8254 12.9165 10.8254C12.5796 10.2395 12.1547 9.6145 11.6957 8.99938ZM9.24454 6.02112C9.31779 3.59462 8.99555 1.61724 8.77093 0.328358C8.39494 0.479733 8.00432 0.684734 7.59408 0.967985C7.59408 0.967985 8.01894 2.86224 8.02869 4.70299C8.02869 4.70299 8.53656 5.22537 9.24454 6.02112ZM11.8569 11.6163C11.1977 11.4405 10.4555 11.2989 9.69866 11.1866C7.5062 8.35975 4.62039 6.23112 3.14093 5.1765C3.87328 4.72724 4.5179 4.67362 4.5179 4.67362C8.61956 7.24175 11.8569 11.6163 11.8569 11.6163ZM5.86549 10.8156C4.20053 9.04813 2.57444 7.87638 1.50509 7.1245C1.34397 7.49563 1.21209 7.92038 1.12422 8.40863C1.12422 8.40863 2.76493 9.44363 4.07353 10.7424C4.07353 10.7424 4.80101 10.7521 5.86549 10.8156ZM8.7513 11.0646C8.08244 10.9865 7.42321 10.923 6.81772 10.8791C4.90851 8.72113 2.99443 7.36375 1.80783 6.52887C2.04708 6.14325 2.31082 5.83562 2.58419 5.5915C3.88791 6.51912 6.58823 8.46225 8.7513 11.0646ZM7.57945 15.9665C8.03844 15.571 8.54631 15.1463 9.07367 14.7313C5.70437 14.4236 2.41819 14.9558 0.845975 15.2244C0.826351 15.5905 0.85085 15.9958 0.963097 16.4351C2.39382 16.1861 4.70827 15.7908 7.57945 15.9665ZM11.6665 12.9248C11.0805 13.2616 10.4555 13.6864 9.84028 14.1454C6.28548 13.6961 2.74043 14.2333 0.948474 14.531C1.14872 13.6913 1.56859 13.203 1.56859 13.203C6.28061 12.124 11.6665 12.9248 11.6665 12.9248ZM6.86172 16.5963C4.4349 16.523 2.45732 16.8453 1.16822 17.0699C1.31959 17.4458 1.52459 17.8364 1.80783 18.2465C1.80783 18.2465 3.70241 17.8218 5.54325 17.812C5.54325 17.812 6.06574 17.3043 6.86172 16.5963ZM9.24942 24.7157C8.76118 24.6278 8.33631 24.4959 7.96519 24.3348C8.71718 23.2655 9.88415 21.6398 11.6567 19.9749C11.5932 21.0393 11.5835 21.7667 11.5835 21.7667C10.2846 23.0752 9.24942 24.7157 9.24942 24.7157ZM5.514 21.3224C5.514 21.3224 5.56775 21.9669 6.01699 22.6993C7.07159 21.2199 9.20054 18.3344 12.0279 16.1423C12.1401 15.3855 12.2817 14.6434 12.4575 13.9843C12.4575 13.9843 8.08244 17.2213 5.514 21.3224ZM7.36946 24.0322C6.98372 23.7929 6.6761 23.5293 6.43198 23.2558C7.35483 21.9523 9.29829 19.2572 11.9057 17.0894C11.8276 17.7583 11.7641 18.4174 11.7201 19.0228C9.56191 20.9318 8.20444 22.8457 7.36946 24.0322ZM14.9868 16.0006C14.5278 15.3855 14.1031 14.7605 13.7661 14.1746C13.7661 14.1746 12.9653 19.5599 14.0444 24.2714C14.0444 24.2714 14.5327 24.6913 15.3725 24.8914C15.0748 23.0995 14.5376 19.555 14.9868 16.0006ZM17.9117 24.6717C17.6871 23.3828 17.3649 21.4054 17.4381 18.9789C18.1461 19.7747 18.654 20.2972 18.654 20.2972C18.6637 22.1378 19.0885 24.0322 19.0885 24.0322C18.6783 24.3153 18.2877 24.5204 17.9117 24.6717ZM16.8081 18.2612C16.4126 17.8023 15.9879 17.2945 15.5728 16.7671C15.2652 20.136 15.7974 23.4218 16.066 24.9939C16.4321 25.0134 16.8375 24.989 17.2769 24.8768C17.0279 23.4463 16.6324 21.132 16.8081 18.2612ZM25.1774 17.8755C24.1081 17.1236 22.4821 15.9518 20.817 14.1844C21.8815 14.2479 22.6091 14.2576 22.6091 14.2576C23.9177 15.5564 25.5583 16.5914 25.5583 16.5914C25.4704 17.0796 25.3386 17.5044 25.1774 17.8755ZM16.984 13.8134C16.2271 13.701 15.4849 13.5595 14.8257 13.3838C14.8257 13.3838 18.0631 17.7583 22.1648 20.3264C22.1648 20.3264 22.8092 20.2727 23.5417 19.8235C22.0621 18.7689 19.1763 16.6403 16.984 13.8134ZM17.9312 13.9354C18.6002 14.0135 19.2594 14.077 19.8648 14.1209C21.7741 16.2789 23.6882 17.6363 24.8747 18.4712C24.6355 18.8568 24.3718 19.1644 24.0983 19.4085C22.7946 18.4809 20.0943 16.5378 17.9312 13.9354ZM16.8424 10.8546C16.2271 11.3136 15.602 11.7384 15.0162 12.0753C15.0162 12.0753 20.402 12.8759 25.1139 11.797C25.1139 11.797 25.5339 11.3088 25.7342 10.469C24.4353 10.6886 22.2184 11.0304 19.7379 11.0304C18.7955 11.0255 17.819 10.9768 16.8424 10.8546ZM20.5338 9.08238C22.7457 9.08238 24.5378 8.77475 25.7194 8.56975C25.8269 9.00913 25.8562 9.41438 25.8318 9.78051C24.2595 10.0491 20.9733 10.5813 17.6041 10.2736C18.1315 9.85863 18.6392 9.43388 19.0982 9.03838C19.5963 9.06775 20.0748 9.08238 20.5338 9.08238ZM19.8209 8.40375C22.2478 8.477 24.2253 8.15475 25.5144 7.93013C25.3631 7.55425 25.1579 7.16362 24.8747 6.7535C24.8747 6.7535 22.9801 7.17825 21.1393 7.188C21.1393 7.188 20.6168 7.69575 19.8209 8.40375ZM19.3131 0.967859C19.6988 1.20711 20.0064 1.47074 20.2507 1.74424C19.3277 3.04774 17.3844 5.74287 14.7769 7.91063C14.855 7.24175 14.9184 6.58262 14.9624 5.97725C17.1206 4.06824 18.4781 2.15436 19.3131 0.967859ZM18.7173 0.665234C18.3462 0.504108 17.9215 0.372233 17.4331 0.284358C17.4331 0.284358 16.398 1.92486 15.0992 3.23336C15.0992 3.23336 15.0894 3.96087 15.0259 5.02512C16.7984 3.36024 17.9654 1.73449 18.7173 0.665234ZM20.6657 2.30074C21.1149 3.03311 21.1687 3.67762 21.1687 3.67762C18.6002 7.77875 14.2251 11.0158 14.2251 11.0158C14.4009 10.3566 14.5426 9.6145 14.6548 8.85775C17.482 6.66562 19.6109 3.78012 20.6657 2.30074Z" fill="#F4F4F4"/>
<path d="M37.3836 21.5595C37.0211 21.5595 36.8398 21.4447 36.8398 21.2151V21.1412C36.8398 20.9934 36.9963 20.7803 37.3097 20.5011C37.6227 20.2058 37.7796 19.8692 37.7796 19.4918V6.1498C37.7796 5.77234 37.6227 5.43577 37.3097 5.14048C36.9963 4.8452 36.8398 4.6317 36.8398 4.50038V4.42647C36.8398 4.19684 37.0046 4.08203 37.3345 4.08203H48.0897C48.4852 4.08203 48.716 4.28728 48.7817 4.69737L49.375 7.35609C49.4576 7.73355 49.3259 7.92228 48.9795 7.92228H48.856C48.6417 7.92228 48.4027 7.79096 48.1388 7.52831C47.8919 7.24915 47.6611 6.94561 47.4468 6.6173C47.2491 6.28938 46.9935 5.99371 46.6801 5.73145C46.3837 5.45229 46.0703 5.31271 45.7408 5.31271H41.5868C41.0265 5.31271 40.7461 5.63275 40.7461 6.27286V12.0083H44.5538C44.8011 12.0083 45.0154 11.9265 45.1966 11.7621C45.3779 11.5817 45.51 11.3929 45.5922 11.1959C45.6913 10.9994 45.7982 10.8185 45.9138 10.6545C46.0455 10.4741 46.1694 10.3836 46.2846 10.3836H46.4328C46.6801 10.3836 46.804 10.5397 46.804 10.8515V14.3469C46.804 14.6587 46.6801 14.8148 46.4328 14.8148H46.2846C46.1694 14.8148 46.0455 14.7327 45.9138 14.5687C45.7982 14.4043 45.6913 14.2321 45.5922 14.0517C45.51 13.8547 45.3779 13.6742 45.1966 13.5102C45.0154 13.3459 44.8011 13.2637 44.5538 13.2637H40.7461L40.7218 19.0243C40.7218 19.3852 40.8122 19.697 40.9935 19.9597C41.1912 20.2058 41.4716 20.3289 41.8341 20.3289H46.5071C46.837 20.3289 47.15 20.1893 47.4468 19.9101C47.7433 19.6314 47.9823 19.3196 48.1636 18.9748C48.3449 18.6303 48.5592 18.3185 48.8065 18.0394C49.0538 17.7606 49.2928 17.621 49.5236 17.621H49.6966C49.8284 17.621 49.9274 17.6784 49.9935 17.7932C50.0757 17.908 50.1004 18.0394 50.0674 18.1872L49.4989 20.9194C49.3998 21.3464 49.1611 21.5595 48.7817 21.5595H37.3836Z" fill="#F4F4F4"/>
<path d="M61.6411 9.74219C61.9379 9.74219 62.0861 9.857 62.0861 10.0866V10.1605C62.0861 10.3245 61.8801 10.5628 61.468 10.8746C61.0725 11.1698 60.8169 11.4734 60.7017 11.7852L57.0176 21.0164C56.9024 21.3774 56.6633 21.5578 56.3008 21.5578H55.2624C54.9325 21.5578 54.6852 21.3774 54.5204 21.0164L50.1195 11.7852C49.9878 11.506 49.7653 11.2107 49.4519 10.8989C49.1389 10.5872 48.9824 10.341 48.9824 10.1605V10.0866C48.9824 9.857 49.1307 9.74219 49.4271 9.74219H53.5564C53.8363 9.74219 53.9767 9.86525 53.9767 10.1114V10.1853C53.9767 10.3001 53.8941 10.4393 53.7294 10.6037C53.5811 10.7676 53.4573 10.932 53.3586 11.0959C53.276 11.2438 53.2843 11.4899 53.3834 11.8343L56.4243 19.4901L59.3169 12.1792C59.449 11.6869 59.449 11.3503 59.3169 11.1699C59.1852 10.9729 59.004 10.7924 58.7732 10.628C58.5589 10.4476 58.4519 10.3001 58.4519 10.1853V10.1114C58.4519 9.86525 58.6001 9.74219 58.8966 9.74219H61.6411Z" fill="#F4F4F4"/>
<path d="M71.8962 17.9413C72.0283 17.7609 72.193 17.6952 72.3908 17.7444C72.6051 17.7935 72.7042 17.9413 72.6877 18.1875C72.5556 19.0572 72.0448 19.8778 71.1546 20.6492C70.2645 21.4202 69.1026 21.806 67.6686 21.806C65.9874 21.806 64.5861 21.2315 63.4651 20.083C62.361 18.9341 61.8086 17.4243 61.8086 15.5535C61.8086 13.8141 62.3775 12.3699 63.5146 11.221C64.6686 10.0721 66.0696 9.49805 67.7178 9.49805C69.2013 9.49805 70.3388 9.86726 71.1299 10.6057C71.9375 11.3275 72.3413 12.1646 72.3413 13.1165C72.3413 13.9698 71.921 14.5442 71.0803 14.8395L65.0972 17.0303C65.4102 17.8839 65.88 18.5484 66.5064 19.0246C67.1327 19.5003 67.8747 19.7382 68.7314 19.7382C69.4734 19.7382 70.1162 19.5742 70.66 19.2459C71.2207 18.9015 71.6327 18.4662 71.8962 17.9413ZM67.2236 10.4334C66.4486 10.4334 65.8305 10.8026 65.3689 11.541C64.9077 12.2795 64.6769 13.2479 64.6769 14.4459C64.6769 15.0038 64.726 15.5287 64.8251 16.021L68.9296 14.2489C69.3582 14.0519 69.5721 13.7071 69.5721 13.2148C69.5721 12.6243 69.3416 12.0168 68.88 11.3932C68.435 10.7535 67.8829 10.4334 67.2236 10.4334Z" fill="#F4F4F4"/>
<path d="M80.4553 9.49718C81.1642 9.49718 81.7163 9.69378 82.1118 10.0878C82.5239 10.4817 82.7299 10.974 82.7299 11.5649C82.7299 12.5986 82.3013 13.1157 81.4442 13.1157C81.0817 13.1157 80.8017 13.017 80.6035 12.8204C80.4058 12.6234 80.2823 12.4017 80.2328 12.1555C80.1832 11.9094 80.068 11.688 79.8868 11.491C79.7055 11.294 79.4582 11.1954 79.1448 11.1954C78.6011 11.1954 78.1807 11.491 77.8839 12.0816C77.5874 12.6726 77.4388 13.3944 77.4388 14.2481V19.516C77.4388 19.8769 77.6287 20.197 78.0077 20.4757C78.3868 20.7549 78.5763 20.9684 78.5763 21.1158V21.2145C78.5763 21.4442 78.4033 21.559 78.0573 21.559H74.2249C73.8785 21.559 73.7055 21.4442 73.7055 21.2145V21.1158C73.7055 20.9684 73.862 20.7549 74.1753 20.4757C74.4883 20.197 74.6452 19.8769 74.6452 19.516V12.8939C74.6452 12.5165 74.4639 12.1964 74.101 11.9341C73.755 11.655 73.582 11.4419 73.582 11.294V11.2201C73.582 11.0397 73.7303 10.8674 74.0271 10.7031L76.4499 9.59548C76.928 9.36586 77.1671 9.50505 77.1671 10.0138V11.9341C77.7274 10.3095 78.8236 9.49718 80.4553 9.49718Z" fill="#F4F4F4"/>
<path d="M90.1051 9.49703C91.6707 9.49703 93.0143 10.0467 94.1348 11.1461C95.2723 12.2293 95.8409 13.6652 95.8409 15.4542C95.8409 17.2919 95.2806 18.81 94.1596 20.0081C93.0555 21.2061 91.712 21.8049 90.1294 21.8049C88.679 21.8049 87.5089 21.2879 86.6187 20.2542L86.6435 21.1405C86.6435 21.4523 86.4787 21.608 86.1488 21.608L83.4787 21.5588C83.1818 21.5588 83.0336 21.444 83.0336 21.2144V21.1405C83.0336 21.0091 83.1901 20.7956 83.5035 20.5004C83.8164 20.1886 83.9733 19.852 83.9733 19.491V6.5674C83.9733 6.27212 83.8825 6.02599 83.7012 5.829C83.5365 5.6155 83.3635 5.44329 83.1818 5.31196C83.0006 5.18064 82.9102 5.04145 82.9102 4.89361V4.81969C82.9102 4.63921 83.0749 4.47526 83.4044 4.32742L85.9511 3.12113C86.2149 2.98981 86.4292 2.96542 86.5939 3.0472C86.7587 3.11287 86.8412 3.27722 86.8412 3.53986V10.8016C87.6323 9.9319 88.7203 9.49703 90.1051 9.49703ZM89.7834 20.8696C90.7723 20.8696 91.539 20.4756 92.0828 19.688C92.6435 18.9005 92.9234 17.7925 92.9234 16.3648C92.9234 14.5923 92.5939 13.1647 91.9346 12.0814C91.2917 10.9821 90.4428 10.4324 89.3879 10.4324C88.6955 10.4324 88.0939 10.7029 87.5832 11.2447C87.0885 11.7696 86.8412 12.4263 86.8412 13.2138V17.3741C86.8412 18.2769 87.1381 19.0892 87.7314 19.8111C88.3412 20.5169 89.0254 20.8696 89.7834 20.8696Z" fill="#F4F4F4"/>
<path d="M97.6756 21.5597C97.3293 21.5597 97.1562 21.4366 97.1562 21.1905V21.1166C97.1562 20.9526 97.3045 20.7309 97.6013 20.4521C97.9143 20.1729 98.0712 19.8611 98.0712 19.5167V6.54391C98.0712 6.14993 97.9143 5.79725 97.6013 5.48546C97.3045 5.17366 97.1562 4.96841 97.1562 4.86972V4.7962C97.1562 4.64837 97.2962 4.50052 97.5766 4.35308L100.074 3.12202C100.354 3.00721 100.568 2.99895 100.717 3.09764C100.881 3.17942 100.964 3.319 100.964 3.51598V19.5167C100.964 19.8611 101.129 20.1812 101.458 20.4765C101.804 20.7556 101.977 20.9691 101.977 21.1166V21.1905C101.977 21.4366 101.796 21.5597 101.434 21.5597H97.6756Z" fill="#F4F4F4"/>
<path d="M109.339 21.806C107.312 21.806 105.688 21.1906 104.468 19.9599C103.248 18.7289 102.639 17.2521 102.639 15.5287C102.639 13.8058 103.232 12.3699 104.419 11.221C105.606 10.0721 107.056 9.49805 108.77 9.49805C110.682 9.49805 112.248 10.1051 113.468 11.3193C114.688 12.5173 115.298 13.9863 115.298 15.7257C115.298 17.4491 114.746 18.8932 113.641 20.0582C112.537 21.2236 111.103 21.806 109.339 21.806ZM109.71 20.8706C110.501 20.8706 111.144 20.5096 111.638 19.7873C112.133 19.0489 112.38 18.0314 112.38 16.735C112.38 14.9956 112.001 13.5105 111.243 12.2794C110.501 11.0488 109.57 10.4334 108.449 10.4334C107.559 10.4334 106.85 10.7944 106.323 11.5163C105.812 12.2221 105.556 13.2396 105.556 14.569C105.556 16.1771 105.943 17.6295 106.718 18.9259C107.509 20.2222 108.507 20.8706 109.71 20.8706Z" fill="#F4F4F4"/>
<path d="M122.995 21.806C120.968 21.806 119.344 21.1906 118.124 19.9599C116.905 18.7289 116.295 17.2521 116.295 15.5287C116.295 13.8058 116.888 12.3699 118.075 11.221C119.262 10.0721 120.712 9.49805 122.427 9.49805C124.339 9.49805 125.904 10.1051 127.124 11.3193C128.344 12.5173 128.954 13.9863 128.954 15.7257C128.954 17.4491 128.402 18.8932 127.297 20.0582C126.193 21.2236 124.759 21.806 122.995 21.806ZM123.366 20.8706C124.157 20.8706 124.8 20.5096 125.295 19.7873C125.789 19.0489 126.037 18.0314 126.037 16.735C126.037 14.9956 125.657 13.5105 124.899 12.2794C124.157 11.0488 123.226 10.4334 122.105 10.4334C121.215 10.4334 120.506 10.7944 119.979 11.5163C119.468 12.2221 119.212 13.2396 119.212 14.569C119.212 16.1771 119.6 17.6295 120.375 18.9259C121.166 20.2222 122.163 20.8706 123.366 20.8706Z" fill="#F4F4F4"/>
<path d="M149.974 19.4921C149.991 19.853 150.139 20.1813 150.419 20.4766C150.716 20.7723 150.864 20.9936 150.864 21.1415V21.2398C150.864 21.4698 150.691 21.5846 150.345 21.5846H146.711C146.364 21.5846 146.191 21.4698 146.191 21.2398V21.1415C146.191 20.9936 146.339 20.7805 146.636 20.5014C146.933 20.2061 147.073 19.8778 147.057 19.5168L146.809 14.8643C146.744 13.3871 146.488 12.3203 146.043 11.6641C145.614 11.0075 144.996 10.6796 144.189 10.6796C143.513 10.6796 142.936 10.9584 142.458 11.5163C141.996 12.0581 141.749 12.7473 141.716 13.584C141.782 13.9123 141.815 14.3063 141.815 14.7656V19.5168C141.815 19.8778 141.955 20.2061 142.235 20.5014C142.532 20.7805 142.68 20.9936 142.68 21.1415V21.2398C142.68 21.4698 142.507 21.5846 142.161 21.5846H138.576C138.214 21.5846 138.032 21.4698 138.032 21.2398V21.1415C138.032 20.9936 138.172 20.7805 138.453 20.5014C138.749 20.2061 138.898 19.8778 138.898 19.5168V14.5934C138.898 13.3627 138.65 12.4025 138.156 11.7133C137.678 11.024 137.06 10.6796 136.301 10.6796C135.56 10.6796 134.95 10.9584 134.472 11.5163C133.994 12.0581 133.738 12.7556 133.705 13.6088L133.73 19.5168C133.73 19.8778 133.895 20.2061 134.225 20.5014C134.554 20.7805 134.719 20.9936 134.719 21.1415V21.2398C134.719 21.4698 134.546 21.5846 134.2 21.5846H130.367C130.005 21.5846 129.824 21.4698 129.824 21.2398V21.1415C129.824 20.9936 129.988 20.7805 130.318 20.5014C130.648 20.2061 130.813 19.8778 130.813 19.5168V12.9196C130.813 12.6243 130.722 12.3781 130.54 12.1812C130.359 11.9842 130.178 11.8198 129.997 11.6889C129.815 11.5576 129.725 11.418 129.725 11.2701V11.1962C129.725 11.0323 129.873 10.8844 130.17 10.7531L132.692 9.59634C132.955 9.48153 133.153 9.47328 133.285 9.57158C133.417 9.65375 133.483 9.80985 133.483 10.0395V11.4919C133.846 10.8844 134.332 10.4004 134.942 10.0395C135.568 9.67852 136.26 9.49805 137.019 9.49805C137.925 9.49805 138.741 9.71116 139.466 10.1378C140.208 10.5644 140.785 11.1636 141.197 11.935C141.51 11.1636 142.013 10.5644 142.705 10.1378C143.397 9.71116 144.18 9.49805 145.054 9.49805C146.339 9.49805 147.394 9.93292 148.219 10.8026C149.06 11.6559 149.546 13.0344 149.678 14.9382L149.974 19.4921Z" fill="#F4F4F4"/>
</svg>
